<svg width="1200" height="128" viewBox="0 0 1200 128" fill="none" xmlns="http://www.w3.org/2000/svg" role="img" aria-label="Also available for iOS — Scyther">
  <defs>
    <linearGradient id="bg" x1="0" y1="0" x2="900" y2="128" gradientUnits="userSpaceOnUse">
      <stop stop-color="#151A21"/><stop offset="1" stop-color="#0C1015"/>
    </linearGradient>
  </defs>
  <rect x="1" y="1" width="1198" height="126" rx="16" fill="url(#bg)" stroke="#2A303A" stroke-width="1.5"/>
  <rect x="1" y="1" width="6" height="126" rx="3" fill="#0A84FF"/>
  <!-- platform badge -->
  <rect x="34" y="34" width="60" height="60" rx="15" fill="#0A84FF" fill-opacity="0.14"/>
  <g transform="translate(48,48) scale(1.35)" fill="#4DA3FF">
    <path d="M12.152 6.896c-.948 0-2.415-1.078-3.96-1.04-2.04.027-3.91 1.183-4.961 3.014-2.117 3.675-.546 9.103 1.519 12.09 1.013 1.454 2.208 3.09 3.792 3.033 1.52-.065 2.09-.987 3.935-.987 1.831 0 2.35.987 3.96.948 1.637-.026 2.676-1.48 3.676-2.948 1.156-1.688 1.636-3.325 1.662-3.415-.039-.013-3.182-1.221-3.22-4.857-.026-3.04 2.48-4.494 2.597-4.559-1.429-2.09-3.623-2.324-4.39-2.376-2-.156-3.675 1.09-4.61 1.09zM15.53 3.83c.843-1.012 1.4-2.427 1.245-3.83-1.207.052-2.662.805-3.532 1.818-.78.896-1.454 2.338-1.273 3.714 1.338.104 2.715-.688 3.559-1.701"/>
  </g>
  <g font-family="-apple-system, BlinkMacSystemFont, 'Segoe UI', Roboto, Helvetica, Arial, sans-serif">
    <text x="118" y="52" fill="#6FB4FF" font-size="12" font-weight="700" letter-spacing="2.5">ALSO AVAILABLE FOR iOS</text>
    <text x="118" y="82" fill="#FFFFFF" font-size="21" font-weight="800">Looking for the iOS version? Get <tspan fill="#4DA3FF">Scyther</tspan>.</text>
    <!-- button -->
    <rect x="978" y="42" width="188" height="44" rx="22" fill="#0A84FF"/>
    <text x="1072" y="70" text-anchor="middle" fill="#FFFFFF" font-size="14" font-weight="800" letter-spacing="1">VIEW SCYTHER  →</text>
  </g>
</svg>
