<svg width="1200" height="200" viewBox="0 0 1200 200" fill="none" xmlns="http://www.w3.org/2000/svg" role="img" aria-label="Looking for the iOS version? Get Scyther for iOS">
  <defs>
    <linearGradient id="bg" x1="0" y1="0" x2="1200" y2="200" gradientUnits="userSpaceOnUse">
      <stop stop-color="#12161C"/>
      <stop offset="1" stop-color="#0A0D11"/>
    </linearGradient>
    <radialGradient id="glow" cx="600" cy="40" r="520" gradientUnits="userSpaceOnUse">
      <stop stop-color="#0A84FF" stop-opacity="0.16"/>
      <stop offset="1" stop-color="#0A84FF" stop-opacity="0"/>
    </radialGradient>
  </defs>
  <rect x="1" y="1" width="1198" height="198" rx="18" fill="url(#bg)" stroke="#262B33" stroke-width="1.5"/>
  <rect x="1" y="1" width="1198" height="198" rx="18" fill="url(#glow)"/>
  <rect x="1" y="1" width="1198" height="6" rx="3" fill="#0A84FF"/>
  <g font-family="-apple-system, BlinkMacSystemFont, 'Segoe UI', Roboto, Helvetica, Arial, sans-serif">
    <text x="600" y="54" text-anchor="middle" fill="#4DA3FF" font-size="15" font-weight="700" letter-spacing="4">ALSO AVAILABLE FOR iOS</text>
    <text x="600" y="97" text-anchor="middle" fill="#FFFFFF" font-size="33" font-weight="800" letter-spacing="-0.5">Looking for the iOS version?</text>
    <text x="600" y="127" text-anchor="middle" fill="#9BA6B4" font-size="17" font-weight="400">Scizor is the Android port of Scyther — the original iOS debugging toolkit.</text>
    <!-- CTA button -->
    <rect x="474" y="149" width="252" height="38" rx="19" fill="#0A84FF"/>
    <g transform="translate(500,158) scale(0.9)" fill="#FFFFFF">
      <path d="M12.152 6.896c-.948 0-2.415-1.078-3.96-1.04-2.04.027-3.91 1.183-4.961 3.014-2.117 3.675-.546 9.103 1.519 12.09 1.013 1.454 2.208 3.09 3.792 3.033 1.52-.065 2.09-.987 3.935-.987 1.831 0 2.35.987 3.96.948 1.637-.026 2.676-1.48 3.676-2.948 1.156-1.688 1.636-3.325 1.662-3.415-.039-.013-3.182-1.221-3.22-4.857-.026-3.04 2.48-4.494 2.597-4.559-1.429-2.09-3.623-2.324-4.39-2.376-2-.156-3.675 1.09-4.61 1.09zM15.53 3.83c.843-1.012 1.4-2.427 1.245-3.83-1.207.052-2.662.805-3.532 1.818-.78.896-1.454 2.338-1.273 3.714 1.338.104 2.715-.688 3.559-1.701"/>
    </g>
    <text x="530" y="174" text-anchor="start" fill="#FFFFFF" font-size="15" font-weight="800" letter-spacing="1.5">GET SCYTHER FOR iOS</text>
  </g>
</svg>
